<?xml version="1.0" encoding="UTF-8" standalone="no"?>
<svg
   viewBox="0 0 24 24"
   version="1.1"
   id="svg4"
   sodipodi:docname="aluminium.svg"
   inkscape:version="1.2.2 (732a01da63, 2022-12-09)"
   inkscape:export-filename="aluminium.svg"
   inkscape:export-xdpi="192.036"
   inkscape:export-ydpi="192.036"
   xmlns:inkscape="http://www.inkscape.org/namespaces/inkscape"
   xmlns:sodipodi="http://sodipodi.sourceforge.net/DTD/sodipodi-0.dtd"
   xmlns="http://www.w3.org/2000/svg"
   xmlns:svg="http://www.w3.org/2000/svg">
  <path
     id="path1258"
     style="display:inline"
     d="M 12 2 C 6.477158 2 2 6.477158 2 12 C 2 17.522841 6.477158 22 12 22 C 17.522841 22 22 17.522841 22 12 C 22 6.477158 17.522841 2 12 2 z M 9.9160156 7.140625 L 11.523438 7.140625 L 15.263672 16.859375 L 13.289062 16.859375 L 12.341797 14.347656 L 9.0664062 14.347656 L 8.171875 16.859375 L 6.1894531 16.859375 L 9.9160156 7.140625 z M 15.386719 7.8125 L 17.041016 7.8125 L 17.041016 16.859375 L 15.386719 16.859375 L 15.386719 7.8125 z M 10.697266 9.8867188 L 9.6914062 12.646484 L 11.714844 12.646484 L 10.697266 9.8867188 z " />
  <defs
     id="defs8">
    <inkscape:path-effect
       effect="offset"
       id="path-effect8878"
       is_visible="true"
       lpeversion="1.2"
       linejoin_type="miter"
       unit="mm"
       offset="0.1"
       miter_limit="4"
       attempt_force_join="false"
       update_on_knot_move="true" />
  </defs>
  <sodipodi:namedview
     id="namedview6"
     pagecolor="#ffffff"
     bordercolor="#666666"
     borderopacity="1.0"
     inkscape:showpageshadow="2"
     inkscape:pageopacity="0.0"
     inkscape:pagecheckerboard="0"
     inkscape:deskcolor="#d1d1d1"
     showgrid="false"
     inkscape:zoom="21.395834"
     inkscape:cx="-2.1966893"
     inkscape:cy="19.022395"
     inkscape:window-width="2560"
     inkscape:window-height="1369"
     inkscape:window-x="1432"
     inkscape:window-y="1122"
     inkscape:window-maximized="1"
     inkscape:current-layer="svg4" />
</svg>
