<?xml version="1.0" encoding="UTF-8" standalone="no"?>
<svg
   viewBox="0 0 24 24"
   version="1.1"
   id="svg4"
   sodipodi:docname="titanium.svg"
   inkscape:version="1.2.2 (732a01da63, 2022-12-09)"
   xmlns:inkscape="http://www.inkscape.org/namespaces/inkscape"
   xmlns:sodipodi="http://sodipodi.sourceforge.net/DTD/sodipodi-0.dtd"
   xmlns="http://www.w3.org/2000/svg"
   xmlns:svg="http://www.w3.org/2000/svg">
  <path
     id="path1258"
     d="M 12 2 C 6.4771579 2 2 6.477158 2 12 C 2 17.522841 6.4771579 22 12 22 C 17.522841 22 22 17.522841 22 12 C 22 6.477158 17.522841 2 12 2 z M 7.0175781 7.140625 L 13.994141 7.140625 L 13.994141 8.8476562 L 11.40625 8.8476562 L 11.40625 16.859375 L 9.5976562 16.859375 L 9.5976562 8.8476562 L 7.0175781 8.8476562 L 7.0175781 7.140625 z M 15.212891 7.9160156 C 15.472172 7.9160156 15.703953 8.0119053 15.888672 8.1933594 C 15.887493 8.1922449 15.887905 8.1905654 15.886719 8.1894531 L 15.896484 8.1972656 C 15.894295 8.1950765 15.890875 8.1955233 15.888672 8.1933594 C 16.090239 8.3839424 16.181641 8.6054492 16.181641 8.8789062 C 16.181641 9.1515502 16.090614 9.368702 15.892578 9.5605469 C 15.711094 9.7420986 15.475264 9.8378906 15.212891 9.8378906 C 14.955839 9.8378906 14.724324 9.7456902 14.539062 9.5664062 C 14.347989 9.3814941 14.253906 9.1427916 14.253906 8.8789062 C 14.253906 8.6043347 14.341339 8.3847072 14.539062 8.1933594 C 14.718446 8.0139055 14.951927 7.9160156 15.212891 7.9160156 z M 14.375 10.501953 L 16.029297 10.501953 L 16.029297 16.859375 L 14.375 16.859375 L 14.375 10.501953 z " />
  <defs
     id="defs8">
    <inkscape:path-effect
       effect="offset"
       id="path-effect19207"
       is_visible="true"
       lpeversion="1.2"
       linejoin_type="miter"
       unit="mm"
       offset="0.1"
       miter_limit="4"
       attempt_force_join="false"
       update_on_knot_move="true" />
  </defs>
  <sodipodi:namedview
     id="namedview6"
     pagecolor="#ffffff"
     bordercolor="#666666"
     borderopacity="1.0"
     inkscape:showpageshadow="2"
     inkscape:pageopacity="0.0"
     inkscape:pagecheckerboard="0"
     inkscape:deskcolor="#d1d1d1"
     showgrid="false"
     inkscape:zoom="15.129139"
     inkscape:cx="-4.2302473"
     inkscape:cy="15.070256"
     inkscape:window-width="2560"
     inkscape:window-height="1369"
     inkscape:window-x="1432"
     inkscape:window-y="1122"
     inkscape:window-maximized="1"
     inkscape:current-layer="svg4" />
</svg>
