<?xml version="1.0" encoding="UTF-8" standalone="no"?>
<svg
   viewBox="0 0 24 24"
   version="1.1"
   id="svg4"
   sodipodi:docname="zinc.svg"
   inkscape:version="1.2.2 (732a01da63, 2022-12-09)"
   xmlns:inkscape="http://www.inkscape.org/namespaces/inkscape"
   xmlns:sodipodi="http://sodipodi.sourceforge.net/DTD/sodipodi-0.dtd"
   xmlns="http://www.w3.org/2000/svg"
   xmlns:svg="http://www.w3.org/2000/svg">
  <path
     id="path1258"
     d="M 12 2 C 6.4771575 2 2 6.477158 2 12 C 2 17.522841 6.4771575 22 12 22 C 17.522841 22 22 17.522841 22 12 C 22 6.477158 17.522841 2 12 2 z M 5.7148438 7.140625 L 12.873047 7.140625 L 12.873047 7.8847656 L 7.9550781 15.152344 L 12.748047 15.152344 L 12.748047 16.859375 L 5.296875 16.859375 L 5.296875 16.072266 L 10.169922 8.8476562 L 5.7148438 8.8476562 L 5.7148438 7.140625 z M 16.433594 10.371094 C 17.148067 10.371094 17.714531 10.597535 18.130859 11.107422 C 18.528048 11.589401 18.703125 12.257485 18.703125 13.058594 L 18.703125 16.859375 L 17.048828 16.859375 L 17.048828 13.287109 C 17.048828 12.242021 16.724852 11.882812 16.126953 11.882812 C 15.798408 11.882813 15.514891 12.011404 15.296875 12.261719 C 15.075768 12.51599 14.953125 12.853463 14.953125 13.287109 L 14.953125 16.859375 L 13.296875 16.859375 L 13.296875 10.501953 L 14.953125 10.501953 L 14.953125 10.921875 C 15.370168 10.596096 15.844473 10.371094 16.433594 10.371094 z " />
  <defs
     id="defs8">
    <inkscape:path-effect
       effect="offset"
       id="path-effect32936"
       is_visible="true"
       lpeversion="1.2"
       linejoin_type="miter"
       unit="mm"
       offset="0.1"
       miter_limit="4"
       attempt_force_join="false"
       update_on_knot_move="true" />
  </defs>
  <sodipodi:namedview
     id="namedview6"
     pagecolor="#ffffff"
     bordercolor="#666666"
     borderopacity="1.0"
     inkscape:showpageshadow="2"
     inkscape:pageopacity="0.0"
     inkscape:pagecheckerboard="0"
     inkscape:deskcolor="#d1d1d1"
     showgrid="false"
     inkscape:zoom="15.129139"
     inkscape:cx="-25.844167"
     inkscape:cy="15.070256"
     inkscape:window-width="2560"
     inkscape:window-height="1369"
     inkscape:window-x="1432"
     inkscape:window-y="1122"
     inkscape:window-maximized="1"
     inkscape:current-layer="svg4" />
</svg>
