<?xml version="1.0" encoding="UTF-8" standalone="no"?>
<svg
   viewBox="0 0 24 24"
   version="1.1"
   id="svg4"
   sodipodi:docname="zirconium.svg"
   inkscape:version="1.2.2 (732a01da63, 2022-12-09)"
   xmlns:inkscape="http://www.inkscape.org/namespaces/inkscape"
   xmlns:sodipodi="http://sodipodi.sourceforge.net/DTD/sodipodi-0.dtd"
   xmlns="http://www.w3.org/2000/svg"
   xmlns:svg="http://www.w3.org/2000/svg">
  <path
     id="path1258"
     d="M 12 2 C 6.477157 2 2 6.4771585 2 12 C 2 17.522841 6.477157 22 12 22 C 17.522839 22 22 17.522841 22 12 C 22 6.4771585 17.522839 2 12 2 z M 6.578125 7.140625 L 13.736328 7.140625 L 13.736328 7.8847656 L 8.8183594 15.152344 L 13.611328 15.152344 L 13.611328 16.859375 L 6.1601562 16.859375 L 6.1601562 16.072266 L 11.035156 8.8476562 L 6.578125 8.8476562 L 6.578125 7.140625 z M 16.925781 10.404297 C 17.17947 10.404297 17.423529 10.434852 17.605469 10.509766 L 17.839844 10.605469 L 17.839844 12.554688 L 17.230469 12.089844 C 17.162158 12.037419 17.029439 11.988281 16.783203 11.988281 C 16.548549 11.988281 16.321304 12.100097 16.126953 12.371094 C 15.931511 12.647519 15.816406 13.054282 15.816406 13.626953 L 15.816406 16.859375 L 14.162109 16.859375 L 14.162109 10.501953 L 15.816406 10.501953 L 15.816406 10.820312 C 16.139603 10.550693 16.509045 10.404297 16.925781 10.404297 z " />
  <defs
     id="defs8">
    <inkscape:path-effect
       effect="offset"
       id="path-effect30002"
       is_visible="true"
       lpeversion="1.2"
       linejoin_type="miter"
       unit="mm"
       offset="0.1"
       miter_limit="4"
       attempt_force_join="false"
       update_on_knot_move="true" />
  </defs>
  <sodipodi:namedview
     id="namedview6"
     pagecolor="#ffffff"
     bordercolor="#666666"
     borderopacity="1.0"
     inkscape:showpageshadow="2"
     inkscape:pageopacity="0.0"
     inkscape:pagecheckerboard="0"
     inkscape:deskcolor="#d1d1d1"
     showgrid="false"
     inkscape:zoom="15.129139"
     inkscape:cx="-19.366601"
     inkscape:cy="15.070256"
     inkscape:window-width="2560"
     inkscape:window-height="1369"
     inkscape:window-x="1432"
     inkscape:window-y="1122"
     inkscape:window-maximized="1"
     inkscape:current-layer="svg4" />
</svg>
